<svg version="1.2" xmlns="http://www.w3.org/2000/svg" viewBox="0 0 250 1350" width="250" height="1350">
	<title>New Project</title>
	<defs>
		<linearGradient id="g1" x2="1" gradientUnits="userSpaceOnUse" gradientTransform="matrix(0,-1268,237,0,124.5,1334)">
			<stop offset="0" stop-color="#003333"/>
			<stop offset="1" stop-color="#00cccc"/>
		</linearGradient>
		<linearGradient id="g2" x2="1" gradientUnits="userSpaceOnUse" gradientTransform="matrix(0,-1323,237,0,124.5,1335)">
			<stop offset="0" stop-color="#330000"/>
			<stop offset="1" stop-color="#cc0033"/>
		</linearGradient>
	</defs>
	<style>
		.s0 { opacity: .2;display: none;fill: url(#g1) } 
		.s1 { opacity: .2;fill: url(#g2) } 
	</style>
	<path id="label right bg" class="s0" aria-label="#02 item"  d="m66.9 1191.5c-0.6 4.6 1.8 6.6 4.3 6.6 2.5 0.3 5.2 1.5 8 2.3 8.6 3.4 17.5 5.7 26.7 8.4 4.6 1.5 5.2 4.2 4.9 10-0.3 5-0.3 10.4 0 15.7 0 2.3 1.9 4.6 1.6 6.6-0.3 5-1.3 10.3-2.5 15.3-0.6 5.4-1.2 5.8-5.5 5-5.2-1.1-11.1-1.5-16.3-2.3-0.6 0-1.5 0-1.8-0.8-4.4-4.6-9.9-4.2-14.8-6.1-1.2-0.4-3.4 1.2-3.7 2.3-0.6 1.9-0.6 6.2 0 6.2 3.4 1.5 0.9 3 0.6 4.9-0.6 2.7-1.5 7.3 0 8.9 2.5 2.3 5.9 4.2 9.2 4.6 9.9 2.7 19.7 3.4 28.9 7.7 0.9 0.3 2.2 0.3 3.1 0.3l-0.6-1.1c0-1.2 0.3-1.5 0.3-1.9 0 0.4 0 0.7 0.3 1.1v1.9c1.8 5 1.5 10 1.5 15.4-0.3 7.3-0.6 14.6-1.2 21.9 0 3.1 0.9 6.9 4 7.7 3.4 1.1 5.2-1.2 5.8-4.6 1.3 2.3 2.8 4.6 5.6 3.8 2.4-0.8 3.3-3.4 3.7-6.1 0.6-7.7 1.2-15.4 1.5-22.7 0.3-7.3 1.2-8.4 6.4-7.3 8.6 2.3 17.9 5 26.5 7.7 1.2 0.4 2.1 2.7 3 4.2 2.2 5.8 0.6 11.2 0.6 16.9 0 6.2 0.4 7.7 5 8.1 3 0.4 6.4-0.8 9.5-0.4 1.8 0 2.4-0.4 3.1-2.7 0.3-3.1 0.3-5.8 0.6-8.1 0-2.6-0.3-5 0-7.3 0.9-3.8 3-4.9 5.8-4.6l15.1 4.6c5.5 1.6 11.6 3.5 17.8 4.7 2.4 0.7 4 0 4.3-4.3 0-3 0.9-6.5 1.2-9.6 0.3-5-1.8-9.2-5.2-11.1-2.5-0.8-4.9-1.9-7.7-2.3-8.3-2.3-16.6-3.9-24.6-6.5-2.4-1.2-4.9-4.3-6.4-6.6-0.6-1.5 0.9-4.2 1.2-6.9 0-1.5 0.3-4.2 0-6.5 0-3.1-0.3-6.2-0.3-8.8 0-6.6 0.3-12.7 0.6-18.9 0-4.2 0.9-5.7 4.3-5.3l23.7 5.7c4.3 1.6 8.3 1.6 12.6 0.4 1.2 0 2.1-1.9 2.7-2.7 0.9-5.4 1.9-10.3-0.9-15.3l-0.3 0.7c-5.2-3-10.8-6.1-16.3-8.4-6.4-2.7-13.2-3.9-20-5.8-4.6-1.5-5.2-2.3-5.2-8.4 0-4.2 0-8.1-0.6-12.3 0-0.8-0.9-1.5-1.8-1.9-0.3 0-0.6 0.4-1.6 0.4-0.3 0-0.6 0-1.5-0.4 0.9 0 1.2-0.8 1.8-0.8 0.7 0 1 0.8 1.3 0.8 0.9-2 1.5-4.3 1.5-6.2 0-5.4 0-10.3-0.3-15.3-3.1-0.8-6.1-1.2-9.2-2 0-0.3-0.3-0.3-0.3-0.3-6.5 0-8.9 3-9.5 11.1-0.4 7.3-0.4 14.6-0.7 21.9-0.3 5.4-1.2 6.1-5.2 5.4-8.3-2.3-16.6-4.3-25.5-6.6-4.3-1.5-4.3-1.9-4.3-8 0-5.8-0.6-11.6-0.6-17.3 0-2.7-0.6-6.2-3.4-6.2-4.6 0-8.9 0-13.2 0.8-1.8 0.4-2.4 1.2-2.1 4.2 0 3.9-0.3 6.9-1 10.8-0.6 5.7-2.4 8.1-5.8 7.7-4.3-1.2-8.3-1.6-12.3-3.1-6.7-2.3-13.2-3.5-20-4.2-3-0.4-4.6 1.1-5.2 4.2-0.3 3.8-0.3 7.7-1.2 11.1zm29.5 86.4c0.9 0.4 1.2 0.8 1.8 2-0.6 0-1.5 0.3-1.5 0-0.3 0-0.6-1.2-0.6-1.6zm7.7-75.6v1.5c-0.3-0.8-0.3-0.8-1-0.8zm17.9 107.6c0.3-0.4 0.3-0.8 0.6-0.8 0 0 0.3 0.4 0.6 0.4-0.3 0.4-0.3 1.1-0.6 1.5zm0.3 10c0.3-0.4 0.3-0.8 0.6-1.5 0.3 0.7 0.9 0.7 0.9 1.1 0 0.4-0.6 0.8-0.9 0.8 0 0-0.3 0-0.6-0.4zm7-94.9c-0.3-3.8 3.7-8 6.8-8 4.6 1.1 9.2 1.1 13.2 2.3 5.5 1.5 10.5 3.8 15.7 5.7 0.6 0.4 1.5 1.6 1.5 2 0.9 3.8 1.9 7.6 2.5 11.1 0 0.8-0.6 1.9-0.9 3.1-0.7 1.9-1.3 4.2-1.3 6.5-0.3 8.1-0.3 16.1-0.3 23.4 0 4.6-1.5 5.8-4.6 5-9.2-2.3-18.1-5-27.3-7.3-1.6-0.4-2.8-3.1-3.4-5-0.6-4.2-0.9-9.2-1.5-13.8 0.6 0 1.2-0.4 1.5-0.4-0.6-8-0.9-16.1-1.9-24.6zm87.3 2.7c0-0.4 0.3-0.4 0.3-0.4l0.6 0.4v0.8c-0.6 0-0.6-0.8-0.9-0.8zm10.7-4.6c0.3-0.4 0.7-1.5 1-1.9l0.9-0.4v0.8c-0.3 0.8-1.2 1.1-1.6 1.9zm-220.5-216.2c0 1.6 0 3.5 0.6 5 2.1 6.5 0.9 14.6 0.9 21.9 0 11.1 0.6 23 1.2 34.9 0 7.3 0.7 14.6 0 21.9-1.2 11.9 0 23.5 2.2 35 1.2 7.7 1.8 15.7 1.8 23.4 0 3.5 0.3 7.3 1 10.7 11.9-2.6 24.2-4.9 36.8-5.7 59-1.2 118.3-1.2 177.3-1.2 1.8-11.5 3.4-23.8 4.3-36.4 0.6-6.2 1.8-11.6 6.7-15.8l3.4-112.5c-27.6-0.4-54.4-3.1-81.7-3.1-4.9 1.6-8.3 5-13.2 6.6-46.1 0-93.7-2.7-139.8-4.7-0.3 7-0.3 13.9-1.5 20zm52.5 82.6c-16.3-31.9-0.9-70.3 28.6-82.2 20.3-7.7 41.5-11.9 63.6-8.8 7.6 0.4 15.3 1.1 23 2.3 19.7 1.9 35 12.3 45.8 28.4 12.3 17.7 12.3 47.2-1.6 64.1-8.2 10.8-18.1 18.8-30.7 23.1-30.1 9.2-59.6 10.7-89.7 2.3-16.6-4.6-30.7-13.1-39-29.2zm19.4-25.8c1.5 10.4 7.6 17.7 16.9 22.3 13.2 6.9 27.3 9.2 41.4 8.5 4.6 0 8.9 0.7 12.6 0.7 12.6 0 24.9-3.4 36.3-8.4 9.2-4.6 16-11.9 16.6-23.1 0-12.6-4.6-23-16-28.8-11.1-4.9-21.8-9.6-34.1-9.9-17.8-0.8-35.6 1.9-53.5 6.5-11 2.7-22.1 20.7-20.2 32.2zm-49.8-297.9c-0.6 2.7 0 5.7 0.3 8.4 3.4 11.9 2.2 23.1 1.8 34.2-0.6 13-0.6 26.1-1.2 39.5v21.5c1.2 12.7 2.8 25 3.7 37.7 1.2 11.1 0.6 23-0.6 34.2-0.3 10.3 0 20.3 0.6 30.7 21.5 2.3 43.6-1.2 65.4 2.3 8.9 0.4 17.9 0.4 26.8 2.3l4.6 0.7c21.8-4.6 43.3-6.5 65.7-7.2 10.8 0.7 20-10.4 30.7-9.6h5.3v-8.1c-0.7-7.3-2.8-10-8-10.4-1-0.7-2.2-0.7-2.5-0.7-10.7 1.1-18.1-5.4-24.3-14.6l-9.5-13.1-39.9-52.6c-5.9-8.1-12.6-13.1-20-17.3-12.3-6.5-26.4 1.6-31 16.5-2.2 6.6-2.2 12.7 0.3 19.2 4.3 8.5 8.6 16.5 16 21.1 3 2.7 6.1 5.8 6.1 11.2 0 7.3-0.9 14.6-2.1 21.5-0.3 1.5-2.5 2.7-4.6 3.4-1.6 0.8-3.7 0-5.3-0.7-14.1-6.6-24.2-17.7-28.8-36.1-5.9-24.2-2.8-47.3 7.6-69.1 1.9-3.1 3.7-5.8 5.9-8.5 15.9-17.3 47-13.8 58 0l34.1 42.3 22.2 25.3c1.5 1.5 3 2.7 5.8 4.2 3.7-9.2 3.7-18 3.7-27.2-0.6-14.3 0-28.8 0-43.4 0-5.8 0.9-11.2 5.2-13.9 5.2-3 5.8-9.2 5.2-15.7l-0.6-33.4-195.7-7.3c0 3.8 0 8.4-0.9 12.7zm-5.5-128.7l-1.3-1.7v-10.7l0.6-10.7-0.6-11.4v-4.9l0.6-4.1-0.6-4.9v-17.2l1.3-1.7h47.3l2.5 0.7 2.7-0.7h7.8l2.7 0.7 4.5-0.7h69.6l0.6 0.7 0.8-0.7h3.1l0.8 0.7 0.6-0.7h61.6l1.4 1.7v9l-0.6 3.2 0.6 2.6-0.6 13.9 0.6 4.1-0.6 4.9 0.6 27.1-0.6 0.8h-6l-12.5-0.8-2.5 0.8-1.4-1.7-0.6 0.9v0.8l-0.7-0.8-3.3 0.8h-137.1l-5.3-3.4q0 3.4-8.5 3.4zm25.5-39.4l1.3 1.7v-0.9l-1.3-1.7zm-24.8-35.1l-1.3-1.7v-48.3l0.6-18.8-0.6-20.6v-56.5l1.3-1.6h11.7l2.7 2.4 0.6-2.4h23.7l1.4 1.6v9l-1.4 15.6v6.6h1.4v7.3h86.5l5.3 1.7h2.5l7.2-1.7 4.1 0.9 6.4-0.9h52.5l1.4 1.7v4.8l-1.4 2.5v7.5l1.4 2.4v46.7l-1.4 1.7h-24.9l-5.8-0.9-2 0.9-11.8-0.9-19.1 0.9-0.6-2.4h-0.7q0 2.4-1.2 2.4h-0.8l-1.9-1.7-1.4 1.7h-1.2l-2.1-1.7-1.2 1.7h-55.2l-3.9-0.9-3.3 0.9h-0.6l-1.9-1.7-1.4 1.7h-23.5v20.4l-1.4 1.7 1.4 17.3-0.8 0.7zm-2.1-162v-36.2l1.4-13.8-1.4-20.7v-36.7l1.4-1.7h6.4l7.4 1.7 20.2-1.7h4.7l1.3 1.7v13.9l-1.3 18 1.3 11.4h12.5l7.2 1.7h1.2l15.7-1.7h2.7l1.4-22.1v-18q0-1.7 1.9-1.7 4.7 0 11.1 2.4l24.3-2.4 0.6 0.9-1.2 35.3 1.2 1.7v3.9h2.7l22.4 1.7 1.2-1.7h19.6v-45.9l1.4-1.5h1.3q12.6 0 19.1-1.7l3.3 0.7 15.7-0.7 0.6 0.7v9q0 8.3-1.3 8.3l1.3 69.7-0.6 18 0.6 10-0.6 0.7h-10.5l-1.9-1.7-14.6 1-13-1-1.4 1.7-18.3-0.7-36.1 0.7-28.2-0.7-32.1 0.7h-21.8l-12.4-1.7-11.1 1q-5.3-0.6-5.3-2.5zm0.5-124.5l-1.4-1.7v-84q0-3 23.7-5.8 57.3-11.4 71.9-13.1 0-2.3-42.2-7.5l-52.8-9-0.6-2.4 0.6-17.3-0.6-26.4v-9l1.4-9.2v-4.9l1.3-1.7-1.3-4.9v-10.6l1.3-1.7h137l2.7 1.7 5.8-1.7h58.7l1.3 1.7v9q0 1.6-1.9 1.6v1.7q1.9 7.7 1.9 20.5v23l-1.3 1.7h-136.4v1q129.8 20.4 137.7 23v40.3q0 1.7-23.7 5.8l-0.7-0.9-7.8 0.9h-6l-3.9 1.5v1.7l-92.9 15.8v0.7h133.7l1.3 1.7v3.2l-0.6 0.9 0.6 0.8v23.1l-0.6 3.3 0.6 3.2v22.3l-1.3 1.7h-104.7v-0.9l0.6-0.8v-0.9h-1.4l-3.3 2.6h-55.2l-25.8 0.8-6.6-1.7-3.3 0.9z"/>
	<path id="label right bg" class="s1" aria-label="#01 stock"  d="m66.9 1192.5c-0.6 4.6 1.8 6.6 4.3 6.6 2.5 0.3 5.2 1.5 8 2.3 8.6 3.4 17.5 5.7 26.7 8.4 4.6 1.5 5.2 4.2 4.9 10-0.3 5-0.3 10.4 0 15.7 0 2.3 1.9 4.6 1.6 6.6-0.3 5-1.3 10.3-2.5 15.3-0.6 5.4-1.2 5.8-5.5 5-5.2-1.1-11.1-1.5-16.3-2.3-0.6 0-1.5 0-1.8-0.8-4.4-4.6-9.9-4.2-14.8-6.1-1.2-0.4-3.4 1.2-3.7 2.3-0.6 1.9-0.6 6.2 0 6.2 3.4 1.5 0.9 3 0.6 4.9-0.6 2.7-1.5 7.3 0 8.9 2.5 2.3 5.9 4.2 9.2 4.6 9.9 2.7 19.7 3.4 28.9 7.7 0.9 0.3 2.2 0.3 3.1 0.3l-0.6-1.1c0-1.2 0.3-1.5 0.3-1.9 0 0.4 0 0.7 0.3 1.1v1.9c1.8 5 1.5 10 1.5 15.4-0.3 7.3-0.6 14.6-1.2 21.9 0 3.1 0.9 6.9 4 7.7 3.4 1.1 5.2-1.2 5.8-4.6 1.3 2.3 2.8 4.6 5.6 3.8 2.4-0.8 3.3-3.4 3.7-6.1 0.6-7.7 1.2-15.4 1.5-22.7 0.3-7.3 1.2-8.4 6.4-7.3 8.6 2.3 17.9 5 26.5 7.7 1.2 0.4 2.1 2.7 3 4.2 2.2 5.8 0.6 11.2 0.6 16.9 0 6.2 0.4 7.7 5 8.1 3 0.4 6.4-0.8 9.5-0.4 1.8 0 2.4-0.4 3.1-2.7 0.3-3.1 0.3-5.8 0.6-8.1 0-2.6-0.3-5 0-7.3 0.9-3.8 3-4.9 5.8-4.6l15.1 4.6c5.5 1.6 11.6 3.5 17.8 4.7 2.4 0.7 4 0 4.3-4.3 0-3 0.9-6.5 1.2-9.6 0.3-5-1.8-9.2-5.2-11.1-2.5-0.8-4.9-1.9-7.7-2.3-8.3-2.3-16.6-3.9-24.6-6.5-2.4-1.2-4.9-4.3-6.4-6.6-0.6-1.5 0.9-4.2 1.2-6.9 0-1.5 0.3-4.2 0-6.5 0-3.1-0.3-6.2-0.3-8.8 0-6.6 0.3-12.7 0.6-18.9 0-4.2 0.9-5.7 4.3-5.3l23.7 5.7c4.3 1.6 8.3 1.6 12.6 0.4 1.2 0 2.1-1.9 2.7-2.7 0.9-5.4 1.9-10.3-0.9-15.3l-0.3 0.7c-5.2-3-10.8-6.1-16.3-8.4-6.4-2.7-13.2-3.9-20-5.8-4.6-1.5-5.2-2.3-5.2-8.4 0-4.2 0-8.1-0.6-12.3 0-0.8-0.9-1.5-1.8-1.9-0.3 0-0.6 0.4-1.6 0.4-0.3 0-0.6 0-1.5-0.4 0.9 0 1.2-0.8 1.8-0.8 0.7 0 1 0.8 1.3 0.8 0.9-2 1.5-4.3 1.5-6.2 0-5.4 0-10.3-0.3-15.3-3.1-0.8-6.1-1.2-9.2-2 0-0.3-0.3-0.3-0.3-0.3-6.5 0-8.9 3-9.5 11.1-0.4 7.3-0.4 14.6-0.7 21.9-0.3 5.4-1.2 6.1-5.2 5.4-8.3-2.3-16.6-4.3-25.5-6.6-4.3-1.5-4.3-1.9-4.3-8 0-5.8-0.6-11.6-0.6-17.3 0-2.7-0.6-6.2-3.4-6.2-4.6 0-8.9 0-13.2 0.8-1.8 0.4-2.4 1.2-2.1 4.2 0 3.9-0.3 6.9-1 10.8-0.6 5.7-2.4 8.1-5.8 7.7-4.3-1.2-8.3-1.6-12.3-3.1-6.7-2.3-13.2-3.5-20-4.2-3-0.4-4.6 1.1-5.2 4.2-0.3 3.8-0.3 7.7-1.2 11.1zm29.5 86.4c0.9 0.4 1.2 0.8 1.8 2-0.6 0-1.5 0.3-1.5 0-0.3 0-0.6-1.2-0.6-1.6zm7.7-75.6v1.5c-0.3-0.8-0.3-0.8-1-0.8zm17.9 107.6c0.3-0.4 0.3-0.8 0.6-0.8 0 0 0.3 0.4 0.6 0.4-0.3 0.4-0.3 1.1-0.6 1.5zm0.3 10c0.3-0.4 0.3-0.8 0.6-1.5 0.3 0.7 0.9 0.7 0.9 1.1 0 0.4-0.6 0.8-0.9 0.8 0 0-0.3 0-0.6-0.4zm7-94.9c-0.3-3.8 3.7-8 6.8-8 4.6 1.1 9.2 1.1 13.2 2.3 5.5 1.5 10.5 3.8 15.7 5.7 0.6 0.4 1.5 1.6 1.5 2 0.9 3.8 1.9 7.6 2.5 11.1 0 0.8-0.6 1.9-0.9 3.1-0.7 1.9-1.3 4.2-1.3 6.5-0.3 8.1-0.3 16.1-0.3 23.4 0 4.6-1.5 5.8-4.6 5-9.2-2.3-18.1-5-27.3-7.3-1.6-0.4-2.8-3.1-3.4-5-0.6-4.2-0.9-9.2-1.5-13.8 0.6 0 1.2-0.4 1.5-0.4-0.6-8-0.9-16.1-1.9-24.6zm87.3 2.7c0-0.4 0.3-0.4 0.3-0.4l0.6 0.4v0.8c-0.6 0-0.6-0.8-0.9-0.8zm10.7-4.6c0.3-0.4 0.7-1.5 1-1.9l0.9-0.4v0.8c-0.3 0.8-1.2 1.1-1.6 1.9zm-220.5-216.2c0 1.6 0 3.5 0.6 5 2.1 6.5 0.9 14.6 0.9 21.9 0 11.1 0.6 23 1.2 34.9 0 7.3 0.7 14.6 0 21.9-1.2 11.9 0 23.5 2.2 35 1.2 7.7 1.8 15.7 1.8 23.4 0 3.5 0.3 7.3 1 10.7 11.9-2.6 24.2-4.9 36.8-5.7 59-1.2 118.3-1.2 177.3-1.2 1.8-11.5 3.4-23.8 4.3-36.4 0.6-6.2 1.8-11.6 6.7-15.8l3.4-112.5c-27.6-0.4-54.4-3.1-81.7-3.1-4.9 1.6-8.3 5-13.2 6.6-46.1 0-93.7-2.7-139.8-4.7-0.3 7-0.3 13.9-1.5 20zm52.5 82.6c-16.3-31.9-0.9-70.3 28.6-82.2 20.3-7.7 41.5-11.9 63.6-8.8 7.6 0.4 15.3 1.1 23 2.3 19.7 1.9 35 12.3 45.8 28.4 12.3 17.7 12.3 47.2-1.6 64.1-8.2 10.8-18.1 18.8-30.7 23.1-30.1 9.2-59.6 10.7-89.7 2.3-16.6-4.6-30.7-13.1-39-29.2zm19.4-25.8c1.5 10.4 7.6 17.7 16.9 22.3 13.2 6.9 27.3 9.2 41.4 8.5 4.6 0 8.9 0.7 12.6 0.7 12.6 0 24.9-3.4 36.3-8.4 9.2-4.6 16-11.9 16.6-23.1 0-12.6-4.6-23-16-28.8-11.1-4.9-21.8-9.6-34.1-9.9-17.8-0.8-35.6 1.9-53.5 6.5-11 2.7-22.1 20.7-20.2 32.2zm-28.3-139c2.2 2.3 4.3 4.6 6.8 6.6 10.7 6.1 15.3 16.9 17.5 29.5l1.8 10.4c5.8 1.2 12 2.3 17.8 3.1 4 0.4 6.5-1.6 8-5.8 3.4-6.9 2.2-14.2 2.2-21.9 0-13 1.8-14.6 13.2-14.6 20.3-0.3 40.2-0.3 60.5-1.5 11.4-0.4 22.7-0.8 34.1-2.7 8.3-1.1 13.8-9.2 14.7-17.3 0.7-9.6-4-18-12.2-21.5-4-1.5-8.3-2.3-12.6-2.3-12.9-0.4-25.8 0-38.7 0.4-25.5 0-51.7 0.4-77.5 0.8-9.5 0.4-19 1.1-28.2 4.2-13.9 3.8-17.2 20.7-7.4 32.6z"/>
	<path id="label right bg" class="s1" aria-label="#01 stock"  d="m22.7 717.8v-14q1.5-30 5.7-30h0.6v-0.8l-1.2-2.2 1.8-2.5-0.6-0.7v-0.8q8.1-28.5 42.9-28.5h13.2l1.2 1.7v56.7l-1.2 1.6h-18.3q-10 0-10 7.7v1.7q0 11.1 10.6 11.1h8.9q14.2 0 23.2-22.9 15.5-32.6 30.3-48 3 0 11.4-7.9 8.6-7.1 25.8-7.1h17.7l17.6 4.7q13.8 0 25.2 37.9 2.5 14.2 2.5 22.8-1.8 39.2-5.7 39.2-3.4 18-11.2 26.8-10.4 14.3-53.6 14.3h-4.5l-0.6-0.8v-2.4l1.2-6.4-1.2-1.5v-5.4q0-10.9 2-13.5v-0.8q-2 0-2-1.5v-26l1.2-1.5h9.5q30.9 0 30.9-7.1v-5.7q0-9.9-11.3-11.6h-8.2q-20.6 0-27.2 18-22 39.8-28.9 48.8-4.4 0-4.4 2.4h1.8v1.5q-15.3 14.2-34.6 14.2h-10.1q-31.8 0-41.5-24.3-5.7-7.3-8.9-37.2zm1.4-86l-1.4-1.7v-48.4l0.6-18.7-0.6-20.7v-56.4l1.4-1.7h11.7l2.7 2.5 0.6-2.5h23.7l1.3 1.7v9l-1.3 15.6v6.5h1.3v7.3h86.6l5.2 1.7h2.6l7.2-1.7 4 1 6.5-1h52.5l1.3 1.7v4.9l-1.3 2.4v7.5l1.3 2.5v46.7l-1.3 1.7h-24.9l-5.9-1-1.9 1-11.9-1-19 1-0.6-2.5h-0.8q0 2.5-1.2 2.5h-0.7l-2-1.7-1.3 1.7h-1.2l-2.1-1.7-1.2 1.7h-55.2l-3.9-1-3.3 1h-0.6l-2-1.7-1.3 1.7h-23.6v20.4l-1.3 1.7 1.3 17.2-0.7 0.8zm-1.4-220.3v-4.7q0-1.5 2-1.5v-1l-2-0.7 0.6-0.8v-8.6q0-25.3 18.3-47.2 11.7-15 45.3-15l6.3 0.7 0.8-0.7 10.6 1.5 3.8-1.5h6.3l2.5 0.7 2.6-0.7 11.4 1.5 1.2-1.5h29.5q39.9 0 49.8 15.7 15.8 17.8 15.8 37h-1.8v0.9q3.7 0 3.7 3l-3.1 1.7v0.7q3.7 0 3.7 6.4v12.6q0 57.2-42.1 69.9-8 1.7-66.3 2.4l-32.7-1.5-4.4 0.8q-42.6 0-54.9-33.9-6.9-16.7-6.9-36.2zm50.4 5.4l34.7 2.4 5.1-1.5h33.3q48.6 0 48.6-4.8 1.2 0 1.2-5.5v-0.7q0-9.4-10.1-9.4l-6.3-0.9h-110.2q-12.6 0-12.6 10.3v0.7q0 9.4 16.3 9.4zm-47.7-139.7l-3.1-14.2v-15q0-36.8 22.2-59.5 9-8.8 31-8.8 0-0.9 17.1-1.5l19.7 0.8 0.6 0.7v61.1l-1.4 1.5-22.8-0.7q-31.6 0-31.6 6.4l-0.6 5.4q0 12 13.9 12l30.5 0.8 8.8 2.2h8.9l15.1-2.2 29.9 0.7q31.6-1.5 31.6-6.4 1.2 0 1.2-7.1 0-11.1-13.9-11.1l-36-0.7-0.8-0.8v-8.8q0-24.5 1.4-35.6-1.4-3-1.4-8.6v-7.1q0-1.9 7.1-2.5l4.3 1.5 36.8 1.7q3.3 4.7 10.2 4.7 13.9 11.4 13.9 18.2 5.3 0 12 31.7 0 44.2-5.7 53l-13.9 23.1q-11.3 18.2-39.9 18.2l-41.9 0.7q-74.5 0-76.6-7.1-4.1 0-14.6-15.7-12-13.5-12-31zm-3.6-100.7v-24.7l1.4-31.3-1.4-4.9v-4.1l1.4-1.7h5.8q8.1 0 14.6 2.4h0.6v-0.7h-1.2v-1.7h59.8v-0.8q-54-19.8-73.8-31.3 0 1.7 2.7 1.7l0.6 0.8v0.7h-0.6q-9.9-2.1-9.9-4.9v-11.4l1.4-1.7-1.4-5.1 1.4-2.4v-1.7l-1.4-2.4v-35.3l0.6-0.9v-0.8l39.6 17.3q0.2 3.4 5.3 3.4l0.6 0.7v0.8l-0.6 0.9v0.8l9.3 1.6h1.2v-1.6l39.6 14.8q53.8-20.7 65.2-23.1 4.7-4.1 44.7-17.2 2.7 3.5 2.7 14.8v4.1q-1.9 2.1-2.7 10.7 0.8 9.5 2.7 12.4v24.7q0 2.1-34.9 11.4-7.1 3.4-13.2 3.4-6 1.1-15.2 6.6l-25.6 8.2v0.8h25.6l22.5 1.7q11.6-1.7 29.6-1.7h9.9l1.3 1.7-0.6 18.9 0.6 17.3-2.7 0.7v1.7l2.1 3.4v0.7q0 1.7-2.7 1.7v4.9q3.3 0 3.3 1.7v13.1l-1.3 1.7h-9.2q-5.7 0-8.5-1.7-8.7 1.7-25.1 1.7h-101.5l-11.9-2.5-39.4 2.5-5.3-0.8-5.4 0.8z"/>
</svg>